<?xml version="1.0" encoding="utf-8"?>
<!-- Generator: Adobe Illustrator 23.0.1, SVG Export Plug-In . SVG Version: 6.00 Build 0)  -->
<svg version="1.1" id="Слой_1" xmlns="http://www.w3.org/2000/svg" xmlns:xlink="http://www.w3.org/1999/xlink" x="0px" y="0px"
	 viewBox="0 0 441 208" style="enable-background:new 0 0 441 208;" xml:space="preserve">
<style type="text/css">
	.st0{fill:#2F76AA;}
	.st1{fill:#325475;}
	.st2{font-family:'Garamond';}
	.st3{font-size:40.7013px;}
</style>
<g>
	<path class="st0" d="M215.16,63.77c3.01,0,4.39,1.95,4.39,4.06c0,5.44-7.88,8.45-12.91,10.32c-0.33,1.3-0.33,2.52-0.33,3.49
		c0,3.41,1.38,5.12,4.39,5.12c6.09,0,10.56-6.25,12.91-12.43l0.49,0.24c-2.27,5.93-6.9,12.75-13.65,12.75
		c-3.66,0-7.31-1.79-7.31-7.88c0-1.14,0.16-2.6,0.65-4.14C205.74,68.56,211.5,63.77,215.16,63.77z M206.71,77.5
		c1.95-0.73,4.14-1.71,5.85-2.68c3.17-1.95,4.55-3.98,4.55-6.99c0-1.54-0.73-3.41-2.36-3.41C211.18,64.42,207.93,70.84,206.71,77.5z
		"/>
	<path class="st0" d="M248.29,74.58c-2.92,7.55-6.34,12.67-10.4,12.67s-5.12-3.9-3.74-8.61l2.11-7.15c1.14-3.65,1.71-7.31-0.08-7.31
		c-5.28,0-10.23,13.32-12.35,20.63l-0.41,1.71h-2.92l5.52-21.85l3.41-0.73L225.8,77.5c2.92-7.55,6.34-13.89,11.13-13.89
		c2.84,0,3.98,3.57,2.27,9.18l-2.27,7.15c-1.62,5.44-1.22,6.82,0.97,6.82c4.06,0,7.47-6.01,9.91-12.43L248.29,74.58z"/>
	<path class="st0" d="M261.61,78.47c-1.95,5.04-5.2,8.77-8.93,8.77c-6.42,0-7.47-6.25-5.52-11.94c1.38-4.31,6.01-11.7,12.1-11.7
		c2.84,0,4.3,2.76,4.3,6.5c0,1.71-0.24,3.49-0.81,5.28c-0.24,0.89-0.57,1.79-0.89,2.6c0.57,0.73,1.54,1.3,3.17,1.3
		c2.11,0,4.22-1.3,5.6-4.95l0.49,0.24c-1.46,3.82-3.82,5.2-6.09,5.2C263.56,79.77,262.42,79.37,261.61,78.47z M262.26,75.31
		c0.41-1.46,0.73-3.17,0.73-5.04c0.08-3.09-1.06-6.17-3.74-6.17c-3.57,0-6.74,4.87-8.69,11.45c-1.38,4.55-2.27,11.21,2.11,11.21
		C256.9,86.76,260.39,81.56,262.26,75.31z"/>
	<path class="st0" d="M303.92,83.51c0-1.71,0.41-4.14,1.06-6.66c-2.03,5.28-5.2,10.4-9.02,10.4s-5.93-6.66-4.14-11.94
		c0.89-2.92,2.76-6.17,5.28-8.53c1.95-1.95,4.22-3.17,6.17-3.17c2.76,0,3.57,3.57,3.41,6.9l1.46-5.85l3.41-0.73l-3.25,11.86
		c-2.44,9.18-2.84,10.96-0.24,10.96c4.14,0,7.47-6.01,9.91-12.43l0.49,0.24c-2.84,7.55-6.25,12.67-10.4,12.67
		C305.14,87.25,303.92,85.87,303.92,83.51z M305.55,73.84c0.81-2.84,1.3-9.75-2.27-9.75c-3.33,0-6.09,4.87-8.04,11.45
		c-1.38,4.55-1.95,11.13,0.73,11.13C300.27,86.68,303.84,79.29,305.55,73.84z"/>
	<path class="st0" d="M316.67,79.53l3.65-14.21h-3.49v-0.49h3.57l3.17-12.26l3.57-0.73l-3.57,13h4.79l-0.08,0.49h-4.87l-4.06,14.95
		c-0.89,3.33-1.79,6.5,0.97,6.5c4.14,0,8.2-6.01,10.64-12.43l0.49,0.24c-2.84,7.55-6.99,12.67-11.13,12.67
		C317.32,87.25,315.29,85.05,316.67,79.53z"/>
	<path class="st0" d="M329.67,79.53l3.74-14.86l3.41-0.73l-4.47,16.33c-0.89,3.33-1.79,6.5,0.97,6.5c4.14,0,7.47-6.01,9.99-12.43
		l0.49,0.24c-2.92,7.55-6.33,12.67-10.48,12.67C329.91,87.25,328.29,85.05,329.67,79.53z M337.22,52.32c1.06,0,1.38,1.3,1.14,2.84
		c-0.24,1.62-1.14,2.76-2.03,2.76c-1.06,0-1.38-1.14-1.14-2.76C335.43,53.62,336.25,52.32,337.22,52.32z"/>
	<path class="st0" d="M357.04,78.47c-1.95,5.04-5.2,8.77-8.93,8.77c-6.42,0-7.47-6.25-5.52-11.94c1.38-4.31,6.01-11.7,12.1-11.7
		c2.84,0,4.31,2.76,4.31,6.5c0,1.71-0.24,3.49-0.81,5.28c-0.24,0.89-0.57,1.79-0.89,2.6c0.57,0.73,1.54,1.3,3.17,1.3
		c2.11,0,4.22-1.3,5.6-4.95l0.49,0.24c-1.46,3.82-3.82,5.2-6.09,5.2C358.99,79.77,357.85,79.37,357.04,78.47z M357.69,75.31
		c0.41-1.46,0.73-3.17,0.73-5.04c0.08-3.09-1.06-6.17-3.74-6.17c-3.57,0-6.74,4.87-8.69,11.45c-1.38,4.55-2.27,11.21,2.11,11.21
		C352.33,86.76,355.82,81.56,357.69,75.31z"/>
	<path class="st0" d="M390.74,74.58c-2.92,7.55-6.33,12.67-10.4,12.67c-4.06,0-5.12-3.9-3.74-8.61l2.11-7.15
		c1.14-3.65,1.71-7.31-0.08-7.31c-5.28,0-10.23,13.32-12.35,20.63l-0.41,1.71h-2.92l5.52-21.85l3.41-0.73l-3.66,13.56
		c2.92-7.55,6.33-13.89,11.13-13.89c2.84,0,3.98,3.57,2.27,9.18l-2.27,7.15c-1.62,5.44-1.22,6.82,0.97,6.82
		c4.06,0,7.47-6.01,9.91-12.43L390.74,74.58z"/>
</g>
<path class="st1" d="M88.08,51.83c-35.11,22.99-41.49,58.44-28.59,83.48c14.93,28.97,55.07,44.5,96.84,18.77
	C94.4,187.77,16.43,116.94,88.08,51.83z"/>
<path class="st0" d="M142.66,153.99l-0.01-13.25l0.06-0.04l9.37,6.03l0,0.99l1.84-1.68l-11.21-7.06l-0.06,0.04l-0.01-7.04l0.05-0.03
	l9.37,6.03l0,0.99l1.84-1.68l-11.21-7.06l-0.04,0.03l-0.01-7.04l0.03-0.02l9.37,6.03l0,0.99l1.84-1.68l-11.21-7.06l-0.03,0.02
	l-0.01-7.04l0.02-0.01l9.37,6.03l0,0.99l1.84-1.68l-11.21-7.06l-0.02,0.01l-0.01-7l-10.08,6.61l3.45,2.15l0.02,2.98l-24.49-15.41
	l-5.4,3.53L95,112.73L95,110.24l16.44-10.74l-0.01-8.31l0.07-0.04l20.48,13.19l0,2.16l4.02-2.65l-24.51-15.43l-5.4,3.53l-11.12,7.11
	l-0.01-2.48l16.47-10.76l-0.01-8.31l0.04-0.03l20.48,13.19l0,2.16l4.02-2.65l-24.51-15.43l-5.4,3.53l-11.12,7.11l-0.01-2.48
	l16.49-10.78l0-7.97L88.9,78.94l0.13,55.24c-18.89-20.61-22.79-60.32,23.62-93.32C70.93,59.68,58.77,97.11,69.56,124.6
	c10.96,27.94,45.56,45.63,92.6,24.34C155.73,151.72,149.16,153.35,142.66,153.99z M136.04,131.35l-0.08-0.05l0.08-0.1L136.04,131.35
	z M95.03,123.9l16.42-10.73l-0.01-8.31l0.09-0.06l20.79,13.39l0.02,7.87l3.68,2.29l0.02,2.81l-24.48-15.41l-5.39,3.52l-11.13,7.11
	L95.03,123.9z M111.47,149.46l-0.02-30.92l0.11-0.07l20.79,13.47l0.05,22.27C125.1,153.76,118.02,152.11,111.47,149.46z"/>
<path class="st0" d="M192.54,57.99c-5.49,1.72-7.34,5.19-9.6,10.45c-3.42,7.97-4.83,18.83-12.48,18.25
	c-9.54-0.72,0.96-29.95,20.08-28.79c3.1,0.19,5.22,2.36,4.51,6.46c-0.56,3.25-3.88,6.37-8.13,6.62c2.06,0.56,3.92,2.11,3.31,4.5
	c-0.61,2.39-4.9,10.48,1.7,11.65c4.49,0.79,7.24-2.53,14.15-13.65c-3.61,4.44-9.18,14.5-13.46,13.12
	c-4.54-1.46-0.25-8.52-0.03-10.85c0.22-2.33-0.77-3.66-3.6-4.66c4.94-0.89,8.29-3.88,8.35-7.34c0.06-3.77-4.3-6.27-6.07-6.42
	c-20.51-1.7-32.53,30.83-19.69,29.96c5.41-0.37,8.48-4.77,11.94-14.46C185.94,66.03,188.14,59,192.54,57.99z"/>
<path class="st0" d="M283.33,79.08l0.53-1.01h0.01c3.03-5.94,3.68-10.79,0.65-14.22l-0.49,0.24c1.14,4.22,0.97,10.4-0.97,14.21
	c-2.36,4.63-5.85,8.45-8.69,8.45c-1.38,0-1.95-1.54-1.95-4.3c0-4.06,1.38-10.64,4.3-18.52l-3.33,0.73
	c-1.95,4.95-3.49,10.64-3.49,15.03c0,5.44,1.54,7.55,4.47,7.55c2.72,0,6.3-3.39,8.97-8.14L283.33,79.08z"/>
<text transform="matrix(0.9095 0 0 1 158.1885 138.9941)" class="st1 st2 st3">TECHNOLOGY</text>
</svg>
